<svg xmlns="http://www.w3.org/2000/svg" width="12" height="12" viewBox="0 0 12 12" fill="none">
  <path
    d="M3.45419 5.78348C3.49266 5.74261 3.5388 5.70973 3.58998 5.6867C3.64117 5.66367 3.69638 5.65095 3.75248 5.64926C3.80858 5.64757 3.86446 5.65696 3.91693 5.67687C3.9694 5.69678 4.01744 5.72684 4.05829 5.76532C6.02469 7.61768 7.99777 8.7447 10.3196 9.31915C10.6329 8.46454 10.6607 7.52394 10.3901 6.6063C10.0312 5.38875 9.19529 4.32797 7.97347 3.53879C6.88277 2.83428 5.79261 2.6508 4.73797 2.47347C3.40745 2.24967 2.15065 2.03816 0.951257 0.76826C0.817724 0.627784 0.635853 0.571433 0.461994 0.617102C0.263297 0.670515 0.130032 0.827549 0.0662031 1.08714C-0.0833534 1.69471 0.01279 3.39752 0.433418 5.19513C1.10883 8.08317 2.1867 9.54456 2.97214 10.2622C3.98699 11.1886 5.31216 11.7016 6.62906 11.7016C6.87729 11.702 7.1252 11.6838 7.3707 11.6472C8.48463 11.4784 9.41188 10.9189 9.93453 10.1049C7.54456 9.48313 5.50285 8.30083 3.47155 6.38838C3.43062 6.34984 3.3977 6.30361 3.37467 6.25233C3.35164 6.20105 3.33895 6.14572 3.33734 6.08953C3.33573 6.03334 3.34522 5.97738 3.36527 5.92486C3.38532 5.87234 3.41554 5.8243 3.45419 5.78348ZM11.6285 9.58088C11.1791 9.51171 10.7437 9.42491 10.3199 9.31995C10.2328 9.55784 10.1243 9.78738 9.99595 10.0058C9.97646 10.0392 9.95589 10.0723 9.93479 10.1049C10.4503 10.2383 10.9723 10.3453 11.4987 10.4253C11.5547 10.4352 11.6122 10.4337 11.6676 10.4211C11.7231 10.4085 11.7754 10.3849 11.8217 10.3518C11.8679 10.3186 11.907 10.2766 11.9368 10.2281C11.9666 10.1797 11.9864 10.1257 11.995 10.0695C12.0037 10.0133 12.001 9.95594 11.9872 9.90077C11.9734 9.84559 11.9487 9.79373 11.9146 9.74821C11.8805 9.7027 11.8377 9.66446 11.7886 9.63572C11.7395 9.60699 11.6852 9.58834 11.6288 9.58088H11.6285Z"
    fill="#272936" />
</svg>