<svg xmlns="http://www.w3.org/2000/svg" width="12" height="12" viewBox="0 0 12 12" fill="none">
    <path fill-rule="evenodd" clip-rule="evenodd"
        d="M6 1C3.24 1 1 3.24 1 6C1 8.76 3.24 11 6 11C8.76 11 11 8.76 11 6C11 3.24 8.76 1 6 1ZM2 6C2 5.695 2.04 5.395 2.105 5.11L4.495 7.5V8C4.495 8.55 4.945 9 5.495 9V9.965C3.53 9.715 2 8.035 2 6ZM7.995 8C8.445 8 8.815 8.295 8.945 8.7C9.595 7.99 10 7.04 10 6C10 4.325 8.96 2.885 7.495 2.295V2.5C7.495 3.05 7.045 3.5 6.495 3.5H5.495V4.5C5.495 4.775 5.27 5 4.995 5H3.995V6H6.995C7.27 6 7.495 6.225 7.495 6.5V8H7.995Z"
        fill="#272936" />
</svg>