<svg xmlns="http://www.w3.org/2000/svg" width="12" height="12" viewBox="0 0 12 12" fill="none">
    <path fill-rule="evenodd" clip-rule="evenodd"
        d="M4.5 6C5.465 6 6.25 5.215 6.25 4.25C6.25 3.285 5.465 2.5 4.5 2.5C3.535 2.5 2.75 3.285 2.75 4.25C2.75 5.215 3.535 6 4.5 6ZM1 8.625C1 7.46 3.33 6.875 4.5 6.875C5.67 6.875 8 7.46 8 8.625V9.5H1V8.625ZM4.5 7.875C3.605 7.875 2.59 8.21 2.17 8.5H6.83C6.41 8.21 5.395 7.875 4.5 7.875ZM5.25 4.25C5.25 3.835 4.915 3.5 4.5 3.5C4.085 3.5 3.75 3.835 3.75 4.25C3.75 4.665 4.085 5 4.5 5C4.915 5 5.25 4.665 5.25 4.25ZM8.02 6.905C8.6 7.325 9 7.885 9 8.625V9.5H11V8.625C11 7.615 9.25 7.04 8.02 6.905ZM9.25 4.25C9.25 5.215 8.465 6 7.5 6C7.23 6 6.98 5.935 6.75 5.825C7.065 5.38 7.25 4.835 7.25 4.25C7.25 3.665 7.065 3.12 6.75 2.675C6.98 2.565 7.23 2.5 7.5 2.5C8.465 2.5 9.25 3.285 9.25 4.25Z"
        fill="#272936" />
</svg>