<svg width="16" height="17" viewBox="0 0 16 17" fill="none" xmlns="http://www.w3.org/2000/svg">
<path fill-rule="evenodd" clip-rule="evenodd" d="M7.99992 1.83325C5.41992 1.83325 3.33325 3.91992 3.33325 6.49992C3.33325 9.99992 7.99992 15.1666 7.99992 15.1666C7.99992 15.1666 12.6666 9.99992 12.6666 6.49992C12.6666 3.91992 10.5799 1.83325 7.99992 1.83325ZM4.66659 6.49992C4.66659 4.65992 6.15992 3.16659 7.99992 3.16659C9.83992 3.16659 11.3333 4.65992 11.3333 6.49992C11.3333 8.41992 9.41325 11.2933 7.99992 13.0866C6.61325 11.3066 4.66659 8.39992 4.66659 6.49992ZM6.33325 6.49992C6.33325 5.57944 7.07944 4.83325 7.99992 4.83325C8.59536 4.83325 9.14557 5.15092 9.44329 5.66659C9.74102 6.18225 9.74102 6.81758 9.44329 7.33325C9.14557 7.84892 8.59536 8.16658 7.99992 8.16658C7.07944 8.16658 6.33325 7.42039 6.33325 6.49992Z" fill="#272936"/>
</svg>
