<svg width="148" height="32" viewBox="0 0 148 32" fill="none" xmlns="http://www.w3.org/2000/svg">
<path d="M18.9017 21.6763C20.0263 21.6763 21.1051 21.2376 21.9018 20.4562C22.6986 19.6749 23.1483 18.6146 23.1525 17.5076C22.9745 16.5164 22.6238 14.6858 20.0175 14.6858C17.1721 14.6858 16.2263 18.6086 13.907 21.1271C13.721 22.5628 12.3395 23.8495 10.6152 24.0666C11.0377 24.5007 11.9782 24.736 13.0993 24.736C15.1503 24.736 17.6371 24.1267 18.9442 22.8636C17.2093 22.8845 16.0935 21.7887 15.9819 20.2667C16.3204 20.7124 16.7617 21.0726 17.2693 21.3176C17.7769 21.5627 18.3364 21.6856 18.9017 21.6763Z" fill="#12ABDB"/>
<path d="M23.134 17.3418C23.0835 14.7265 21.8056 12.4958 19.8529 10.7253C18.3435 9.40624 16.6155 8.35184 14.744 7.60794L14.295 7.42749C12.0155 10.1185 4.11426 12.1349 4.11426 17.7654C4.12431 18.8584 4.46096 19.9243 5.08221 20.8302C5.70347 21.7361 6.58187 22.442 7.6079 22.8599C8.76508 23.3067 10.0462 23.3327 11.2211 22.9331C12.2614 22.5758 13.1877 21.9553 13.9071 21.1338C16.2264 18.6075 17.1722 14.6847 20.0176 14.6847C22.6213 14.6847 22.9719 16.5154 23.1393 17.4987C23.1393 17.5039 23.1393 17.4359 23.134 17.3418Z" fill="#0070AD"/>
<path d="M44.2946 17.9866C43.8259 18.75 43.3973 19.2924 43.0089 19.6138C42.6205 19.9219 42.2656 20.0759 41.9442 20.0759C41.596 20.0759 41.2879 19.9219 41.0201 19.6138C40.7656 19.2924 40.5513 18.8906 40.3772 18.4085C40.2031 17.9129 40.0692 17.3638 39.9754 16.7612C39.8817 16.1451 39.8214 15.5357 39.7946 14.933C39.7277 15.1205 39.6674 15.3013 39.6138 15.4754C39.5737 15.6496 39.5402 15.817 39.5134 15.9777C39.4196 16.3527 39.3259 16.6942 39.2321 17.0022C39.1384 17.3103 39.0246 17.5781 38.8906 17.8058C38.7701 18.0201 38.6161 18.1942 38.4286 18.3281C38.2411 18.4487 38.0067 18.5089 37.7254 18.5089C37.4844 18.5089 37.1629 18.4353 36.7612 18.2879C36.7478 18.1808 36.7344 18.0402 36.721 17.8661C36.721 17.692 36.7143 17.5045 36.7009 17.3036C36.6875 17.1027 36.6741 16.9018 36.6607 16.7009C36.6607 16.4866 36.6607 16.279 36.6607 16.0781C36.6473 15.6362 36.6272 15.1674 36.6004 14.6719C36.5871 14.1629 36.567 13.7009 36.5402 13.2857C36.5268 12.8571 36.5 12.5089 36.4598 12.2411C36.433 11.9732 36.3996 11.846 36.3594 11.8594C36.2522 12.2076 36.1384 12.6027 36.0179 13.0446C35.8973 13.4732 35.7634 13.9487 35.6161 14.471C35.4687 15.0201 35.308 15.5893 35.1339 16.1786C34.9732 16.7545 34.8058 17.317 34.6317 17.8661C34.4576 18.4018 34.2768 18.9107 34.0893 19.3929C33.9152 19.8616 33.7344 20.2634 33.5469 20.5982C33.2388 20.8125 32.9844 20.9397 32.7835 20.9799C32.5826 21.0067 32.4219 20.9665 32.3013 20.8594C32.1808 20.7388 32.0937 20.558 32.0402 20.317C32 20.0625 31.9799 19.7612 31.9799 19.4129C31.9799 18.9844 32.0067 18.4821 32.0603 17.9063C32.1272 17.317 32.2076 16.7009 32.3013 16.058C32.3951 15.3348 32.4821 14.5781 32.5625 13.7879C32.6562 12.9844 32.7031 12.2813 32.7031 11.6786C32.7031 11.1295 32.6161 10.4866 32.442 9.75H34.1897C34.2031 9.89732 34.2165 10.1116 34.2299 10.3929C34.2433 10.6741 34.25 10.8884 34.25 11.0357C34.25 11.5313 34.2299 12.0201 34.1897 12.5022C34.1496 12.9844 34.1094 13.4598 34.0692 13.9286C34.0558 14.0357 34.0424 14.1362 34.029 14.2299C34.0156 14.3237 34.0022 14.4241 33.9888 14.5313C34.1897 13.8884 34.3839 13.2455 34.5714 12.6027C34.7723 11.9598 34.9732 11.317 35.1741 10.6741C35.2946 10.3259 35.4621 10.0446 35.6763 9.83036C35.8906 9.60268 36.0982 9.48884 36.2991 9.48884C36.5134 9.48884 36.7411 9.60268 36.9821 9.83036C37.2232 10.058 37.4442 10.3728 37.6451 10.7746C37.8594 11.1763 38.0402 11.6518 38.1875 12.2009C38.3482 12.75 38.4554 13.346 38.5089 13.9888C38.7366 13.3058 38.9643 12.6228 39.192 11.9397C39.433 11.2567 39.6674 10.5737 39.8951 9.89063C40.0156 9.59598 40.2433 9.42188 40.5781 9.3683C40.9263 9.31473 41.2545 9.33482 41.5625 9.42857C41.4955 10.2991 41.442 11.1295 41.4018 11.9196C41.3616 12.7098 41.3415 13.3996 41.3415 13.9888C41.3415 14.7924 41.3616 15.4754 41.4018 16.0379C41.4554 16.5871 41.5156 17.0357 41.5826 17.3839C41.6629 17.7188 41.7567 17.9598 41.8638 18.1071C41.971 18.2545 42.0848 18.3281 42.2054 18.3281C42.4062 18.3281 42.6339 18.1473 42.8884 17.7857C43.1562 17.4241 43.4174 16.9888 43.6719 16.4799L44.3147 16.6406L44.2946 17.9866ZM45.0781 20.3371C44.9978 20.2433 44.8973 20.0759 44.7768 19.8348C44.6562 19.5804 44.5424 19.2321 44.4353 18.7902C44.3281 18.3482 44.2344 17.8058 44.154 17.1629C44.0871 16.5067 44.0536 15.7299 44.0536 14.8326C44.0536 14.1362 44.0804 13.3661 44.1339 12.5223C44.1875 11.6652 44.2812 10.7076 44.4152 9.64955C44.6429 9.51563 44.8304 9.42188 44.9777 9.3683C45.1384 9.31473 45.2723 9.28795 45.3795 9.28795C45.6875 9.28795 45.8951 9.38839 46.0022 9.58929C46.1228 9.79018 46.183 10.0513 46.183 10.3728C46.183 10.6272 46.1629 10.8817 46.1228 11.1362C46.0826 11.3906 46.0357 11.6451 45.9821 11.8996C45.9554 12.0871 45.9286 12.2679 45.9018 12.442C45.875 12.6027 45.8549 12.7366 45.8415 12.8438C45.8281 13.0313 45.8147 13.279 45.8013 13.5871C45.8013 13.8817 45.8013 14.1964 45.8013 14.5313C45.8013 15.0134 45.808 15.5223 45.8214 16.058C45.8482 16.5938 45.8817 17.1027 45.9219 17.5848C45.9754 18.0536 46.0491 18.4688 46.1429 18.8304C46.2366 19.1786 46.3571 19.4063 46.5045 19.5134C46.6384 19.6205 46.8125 19.6272 47.0268 19.5335C47.2545 19.4397 47.4754 19.3058 47.6897 19.1317C47.9174 18.9442 48.1183 18.75 48.2924 18.5491C48.4799 18.3482 48.6138 18.1942 48.6942 18.0871V18.1071C49.2433 17.3304 49.6518 16.5402 49.9196 15.7366C50.1875 14.9196 50.442 14.0625 50.683 13.1652C50.8304 12.6429 50.9777 12.1138 51.125 11.5781C51.2723 11.029 51.4397 10.5067 51.6272 10.0112C51.721 9.77009 51.8482 9.58259 52.0089 9.44866C52.1696 9.30134 52.3371 9.22768 52.5112 9.22768C52.9397 9.22768 53.1942 9.52232 53.2746 10.1116L54.3996 17.846L54.6607 17.5848C54.9152 17.3304 55.1897 17.0625 55.4844 16.7813C55.779 16.5 56.067 16.279 56.3482 16.1183C56.6429 15.9442 56.9107 15.8638 57.1518 15.8772C57.3929 15.8772 57.5937 16.0313 57.7545 16.3393C57.7679 16.3527 57.7746 16.3929 57.7746 16.4598C57.7746 16.5268 57.7746 16.6004 57.7746 16.6808C57.7746 16.7478 57.7679 16.8147 57.7545 16.8817C57.7545 16.9487 57.7478 16.9888 57.7344 17.0022C57.6272 17.1094 57.4397 17.2969 57.1719 17.5647C56.9174 17.8192 56.6429 18.0938 56.3482 18.3884C56.0536 18.683 55.7723 18.9643 55.5045 19.2321C55.25 19.4866 55.0759 19.6674 54.9821 19.7746C54.9554 19.8013 54.9219 19.8549 54.8817 19.9353C54.8415 20.0156 54.808 20.0893 54.7812 20.1563V21.1205C54.7812 22.0312 54.7478 22.9687 54.6808 23.933C54.6138 24.9107 54.4464 25.8549 54.1786 26.7656C53.9241 27.6897 53.5424 28.5402 53.0335 29.317C52.5379 30.1071 51.8549 30.7634 50.9844 31.2857H51.0045C50.8973 31.3527 50.7634 31.4263 50.6027 31.5067C50.442 31.5871 50.2612 31.6607 50.0603 31.7277C49.8728 31.808 49.6719 31.875 49.4576 31.9286C49.2567 31.9821 49.0558 32.0089 48.8549 32.0089C48.6272 32.0089 48.4196 31.9687 48.2321 31.8884C48.0446 31.808 47.8906 31.6607 47.7701 31.4464C47.6094 31.1786 47.4888 30.8839 47.4085 30.5625C47.3281 30.2411 47.2879 29.9129 47.2879 29.5781C47.2879 29.1362 47.3415 28.6875 47.4487 28.2321C47.5558 27.7768 47.6897 27.3348 47.8504 26.9062C48.0246 26.4777 48.2054 26.0759 48.3929 25.7009C48.5937 25.3393 48.7879 25.0179 48.9754 24.7366C49.1094 24.5357 49.3103 24.2612 49.5781 23.9129C49.8594 23.5781 50.154 23.2165 50.4621 22.8281C50.7433 22.4933 51.0246 22.1451 51.3058 21.7835C51.5871 21.4353 51.8415 21.1138 52.0692 20.8192C52.2969 20.5112 52.4777 20.2433 52.6116 20.0156C52.7589 19.7879 52.8326 19.6205 52.8326 19.5134C52.8326 19.3527 52.7991 19.1183 52.7321 18.8103C52.6652 18.5022 52.5781 18.1406 52.471 17.7254C52.404 17.471 52.3437 17.2768 52.2902 17.1429C52.25 17.0089 52.2098 16.875 52.1696 16.7411C52.1295 16.6071 52.0893 16.4464 52.0491 16.2589C52.0089 16.0714 51.9621 15.7969 51.9085 15.4353C51.6808 16.0246 51.3795 16.6607 51.0045 17.3438C50.6295 18.0268 50.2143 18.6629 49.7589 19.2522C49.317 19.8415 48.8415 20.3371 48.3326 20.7388C47.8237 21.1272 47.3214 21.3214 46.8259 21.3214C46.5179 21.3214 46.2165 21.2411 45.9219 21.0804C45.6272 20.933 45.346 20.6853 45.0781 20.3371ZM48.9955 30.4821C49.1562 30.7366 49.3304 30.8638 49.5179 30.8638C49.7723 30.8638 50.0402 30.7299 50.3214 30.4621C50.6161 30.1942 50.8973 29.8527 51.1652 29.4375C51.4464 29.0223 51.7076 28.5536 51.9487 28.0312C52.1897 27.5223 52.3973 27.0134 52.5714 26.5045C52.7589 25.9955 52.8996 25.5201 52.9933 25.0781C53.1004 24.6496 53.1473 24.308 53.1339 24.0536C53.1205 23.9732 53.1071 23.846 53.0937 23.6719C53.0804 23.5112 53.0603 23.3237 53.0335 23.1094C53.0201 22.9085 53 22.6942 52.9732 22.4665C52.9464 22.2388 52.9263 22.0246 52.9129 21.8237C52.2835 22.7879 51.6272 23.7924 50.9442 24.8371C50.2746 25.8817 49.625 26.8862 48.9955 27.8504C48.9152 27.9844 48.8482 28.1652 48.7946 28.3929C48.7545 28.6339 48.7344 28.8817 48.7344 29.1362C48.7344 29.404 48.7545 29.6585 48.7946 29.8996C48.8482 30.1406 48.9152 30.3348 48.9955 30.4821ZM57.192 4.84822C57.1652 4.41964 57.2455 4.09152 57.433 3.86384C57.6339 3.63616 57.8482 3.52232 58.0759 3.52232C58.317 3.50893 58.5312 3.61607 58.7187 3.84375C58.9196 4.05804 59 4.39286 58.9598 4.84822H59.0201C59.0067 5.27679 59.0134 5.76563 59.0402 6.31473C59.067 6.86384 59.1004 7.43304 59.1406 8.02232C59.1942 8.61161 59.2411 9.20089 59.2812 9.79018C59.3348 10.3795 59.375 10.9152 59.4018 11.3973C59.9911 10.6473 60.6205 10.0982 61.2902 9.75C61.9732 9.40179 62.6228 9.22768 63.2388 9.22768C63.6138 9.22768 63.9621 9.28795 64.2835 9.40848C64.6183 9.52902 64.9062 9.70982 65.1473 9.95089C65.3884 10.192 65.5759 10.4866 65.7098 10.8348C65.8437 11.183 65.9107 11.5848 65.9107 12.0402C65.9107 12.8304 65.6562 13.7612 65.1473 14.8326C64.6384 15.904 63.7746 17.1295 62.5558 18.5089L60.1652 20.7188C59.7902 20.4911 59.5223 20.317 59.3616 20.1964C59.2009 20.0759 59.1071 19.9621 59.0804 19.8549C59.067 20.1362 58.9598 20.3504 58.7589 20.4978C58.5714 20.6451 58.3638 20.7188 58.1362 20.7188C57.9219 20.7054 57.7277 20.6116 57.5536 20.4375C57.3795 20.25 57.2991 19.9688 57.3125 19.5938C57.3527 19.2991 57.3862 18.8705 57.4129 18.308C57.4397 17.7455 57.4665 17.1094 57.4933 16.3996C57.5201 15.6763 57.5402 14.9063 57.5536 14.0893C57.567 13.2589 57.5737 12.4286 57.5737 11.5982C57.5737 10.9152 57.567 10.2455 57.5536 9.58929C57.5402 8.91964 57.5134 8.29018 57.4732 7.70089C57.4464 7.09822 57.4062 6.55581 57.3527 6.07366C57.3125 5.57813 57.2589 5.16964 57.192 4.84822ZM59.3616 17.5848C59.3214 17.8527 59.2746 18.1875 59.221 18.5893C59.1808 18.9777 59.1406 19.346 59.1004 19.6942C59.1272 19.6272 59.1607 19.5603 59.2009 19.4933C59.2545 19.4129 59.3214 19.3125 59.4018 19.192C59.9375 18.7098 60.4397 18.2411 60.9085 17.7857C61.3906 17.317 61.8326 16.8348 62.2344 16.3393C62.6362 15.8438 62.9978 15.3214 63.3192 14.7723C63.654 14.2232 63.9353 13.6205 64.1629 12.9643V12.9844C64.2031 12.8504 64.2299 12.7165 64.2433 12.5826C64.2567 12.4487 64.2634 12.3214 64.2634 12.2009C64.2634 11.7723 64.1496 11.4509 63.9219 11.2366C63.6942 11.0223 63.4196 10.9152 63.0982 10.9152C62.7098 10.9152 62.2946 11.0625 61.8527 11.3571C61.4241 11.6384 61.0491 12.067 60.7277 12.6429C60.4732 13.0446 60.2656 13.4464 60.1049 13.8482C59.9576 14.25 59.8304 14.6585 59.7232 15.0737C59.6295 15.4754 59.5558 15.8839 59.5022 16.2991C59.4487 16.7143 59.4018 17.1429 59.3616 17.5848ZM71.5558 17.6049C70.7254 18.8906 70.0089 19.8147 69.4062 20.3772C68.8036 20.9263 68.2946 21.2009 67.8795 21.2009C67.558 21.2009 67.2902 21.0871 67.0759 20.8594C66.8616 20.6183 66.6875 20.2902 66.5536 19.875C66.433 19.4464 66.346 18.9509 66.2924 18.3884C66.2254 17.8259 66.192 17.2098 66.192 16.5402C66.192 15.7232 66.2254 14.8527 66.2924 13.9286C66.346 13.0045 66.4129 12.0938 66.4933 11.1964C66.587 10.2991 66.6808 9.44197 66.7745 8.625C66.8817 7.80804 66.9754 7.08482 67.0558 6.45536C67.1763 6.16072 67.3237 5.95313 67.4978 5.83259C67.6853 5.69866 67.8594 5.64509 68.0201 5.67188C68.1942 5.68527 68.3415 5.76563 68.462 5.91295C68.5826 6.06027 68.6362 6.25447 68.6228 6.49554C68.5826 7.39286 68.5156 8.34375 68.4219 9.34822C68.3281 10.3393 68.2277 11.3237 68.1205 12.3013C68.0134 13.3058 67.9196 14.2902 67.8393 15.2545C67.7589 16.2054 67.7187 17.0223 67.7187 17.7054C67.7187 18.2277 67.7388 18.6496 67.779 18.971C67.8192 19.279 67.8929 19.433 68 19.433C68.1607 19.433 68.4085 19.2522 68.7433 18.8906C69.0781 18.529 69.5201 17.9263 70.0692 17.0826C70.3638 16.654 70.6384 16.4397 70.8929 16.4397C71.1339 16.4397 71.2946 16.5402 71.375 16.7411C71.4687 16.9286 71.5424 17.1094 71.596 17.2835C71.596 17.3103 71.596 17.3371 71.596 17.3638C71.6094 17.3772 71.6161 17.3906 71.6161 17.404L71.5558 17.6049ZM77.221 20.8594C76.8192 20.4978 76.4978 19.9688 76.2567 19.2723C76.029 18.5625 75.8817 17.7656 75.8147 16.8817C75.2388 18.3147 74.7031 19.3393 74.2076 19.9554C73.7254 20.558 73.2701 20.8594 72.8415 20.8594C72.4799 20.8594 72.1652 20.6719 71.8973 20.2969C71.6295 19.9085 71.4018 19.3929 71.2143 18.75C71.0268 18.1071 70.8862 17.3705 70.7924 16.5402C70.6987 15.6964 70.6518 14.8259 70.6518 13.9286C70.6518 13.192 70.6786 12.4754 70.7321 11.779C70.7857 11.0692 70.8661 10.4063 70.9732 9.79018C71.0268 9.57589 71.1071 9.42857 71.2143 9.34822C71.3348 9.25447 71.462 9.20759 71.596 9.20759C71.7299 9.1942 71.8638 9.21429 71.9978 9.26786C72.1317 9.30804 72.2589 9.34822 72.3795 9.38839C72.4062 9.40179 72.4464 9.42857 72.5 9.46875C72.567 9.49554 72.654 9.5625 72.7612 9.66964C72.6004 10.5804 72.4799 11.4174 72.3995 12.1808C72.3326 12.9442 72.2991 13.6406 72.2991 14.2701C72.2991 14.9933 72.3192 15.6496 72.3594 16.2388C72.4129 16.8147 72.4732 17.3103 72.5402 17.7254C72.6205 18.1406 72.7009 18.4554 72.7812 18.6696C72.8616 18.8839 72.9353 18.9777 73.0022 18.9509C73.1094 18.9777 73.2299 18.8371 73.3638 18.529C73.5112 18.221 73.6585 17.8192 73.8058 17.3237C73.9665 16.8147 74.1272 16.2455 74.2879 15.6161C74.4487 14.9732 74.6027 14.3304 74.75 13.6875C74.9107 13.0313 75.0513 12.4085 75.1719 11.8192C75.3058 11.2165 75.4196 10.7076 75.5134 10.2924C75.6071 10.0246 75.721 9.84375 75.8549 9.75C75.9888 9.64286 76.1295 9.58929 76.2768 9.58929C76.3973 9.58929 76.5045 9.63616 76.5982 9.72991C76.7054 9.82366 76.7991 9.9442 76.8795 10.0915C76.9598 10.2254 77.0268 10.3728 77.0804 10.5335C77.1339 10.6942 77.1607 10.8415 77.1607 10.9754C77.1473 11.0826 77.1339 11.2366 77.1205 11.4375C77.1205 11.6384 77.1205 11.8527 77.1205 12.0804C77.1205 12.4821 77.1272 12.9509 77.1406 13.4866C77.1674 14.0223 77.2009 14.5915 77.2411 15.1942C77.2946 15.7835 77.3616 16.3862 77.442 17.0022C77.5357 17.6183 77.6495 18.2009 77.7835 18.75V18.7299C77.904 19.1183 78.1049 19.4799 78.3862 19.8147L77.221 20.8594ZM85.8795 15.9576C86.1339 16.0246 86.308 16.125 86.4018 16.2589C86.5089 16.3795 86.5625 16.5469 86.5625 16.7612C86.5625 16.9754 86.4687 17.2299 86.2812 17.5246C86.1071 17.8192 85.8661 18.1272 85.558 18.4487C85.25 18.7567 84.9018 19.0647 84.5134 19.3728C84.125 19.6808 83.7165 19.9621 83.2879 20.2165C82.8594 20.4576 82.4308 20.6585 82.0022 20.8192C81.587 20.9665 81.1987 21.0402 80.837 21.0402C80.5692 21.0402 80.3214 21 80.0937 20.9196C79.8661 20.8393 79.6652 20.7121 79.4911 20.5379L79.5312 20.558C79.1027 20.1696 78.7812 19.5268 78.567 18.6295C78.3661 17.7321 78.2656 16.7143 78.2656 15.5759C78.2656 14.9464 78.2991 14.3103 78.3661 13.6674C78.4196 13.0112 78.5067 12.375 78.6272 11.7589C79.0558 10.5536 79.5245 9.69643 80.0335 9.1875C80.5424 8.66518 81.0312 8.40402 81.5 8.40402C81.7812 8.40402 82.0357 8.48438 82.2634 8.64509C82.5045 8.79241 82.712 9.0067 82.8862 9.28795C83.0737 9.5558 83.2143 9.87723 83.308 10.2522C83.4152 10.6138 83.4687 11.0156 83.4687 11.4576C83.4687 11.8594 83.4152 12.2946 83.308 12.7634C83.2143 13.2321 83.0469 13.7009 82.8058 14.1696C82.6853 14.4107 82.5647 14.6652 82.4442 14.933C82.337 15.2009 82.2232 15.4754 82.1027 15.7567C81.875 16.2656 81.6339 16.7813 81.3795 17.3036C81.1384 17.8125 80.904 18.2411 80.6763 18.5893C80.7433 19.0848 80.9375 19.3326 81.2589 19.3326C81.5804 19.3326 81.9554 19.2121 82.3839 18.971C82.8259 18.7299 83.2478 18.442 83.6495 18.1071C84.0647 17.7723 84.4397 17.4241 84.7745 17.0625C85.1094 16.6875 85.337 16.3795 85.4576 16.1384L85.8795 15.9576ZM82.0022 10.9955C82.0022 10.7946 81.962 10.6339 81.8817 10.5134C81.8147 10.3795 81.6942 10.3058 81.5201 10.2924C81.2522 10.3996 81.0179 10.6272 80.817 10.9754C80.6295 11.3103 80.4687 11.7121 80.3348 12.1808C80.2009 12.6496 80.1004 13.1518 80.0335 13.6875C79.9665 14.2232 79.933 14.7388 79.933 15.2344C79.933 15.6629 79.9598 16.0313 80.0134 16.3393C80.2277 15.9777 80.4487 15.5625 80.6763 15.0938C80.9174 14.625 81.1317 14.1496 81.3192 13.6674C81.5201 13.1719 81.6808 12.6964 81.8013 12.2411C81.9353 11.7723 82.0022 11.3571 82.0022 10.9955ZM81.4397 10.2924H81.5201C81.5335 10.2924 81.5469 10.2857 81.5603 10.2723L81.4397 10.2924ZM93.6138 21.1004C93.3192 21.1942 93.0245 21.2411 92.7299 21.2411C92.3817 21.2411 92.087 21.1741 91.846 21.0402C91.6183 20.9063 91.4308 20.7388 91.2835 20.5379C91.1495 20.3371 91.0424 20.1161 90.962 19.875C90.8817 19.6339 90.8147 19.4063 90.7612 19.192C90.0647 19.8482 89.4687 20.2835 88.9732 20.4978C88.4777 20.6987 88.0491 20.7991 87.6875 20.7991C87.4732 20.7991 87.279 20.7723 87.1049 20.7188C86.9308 20.6518 86.7701 20.5982 86.6228 20.558C86.2344 20.183 85.9464 19.7411 85.7589 19.2321C85.5848 18.7098 85.4978 18.1473 85.4978 17.5446C85.4978 16.7009 85.6518 15.817 85.9598 14.8929C86.2679 13.9554 86.6763 13.0982 87.1853 12.3214C87.7076 11.5313 88.3036 10.8817 88.9732 10.3728C89.6429 9.85045 90.3393 9.58929 91.0625 9.58929C91.1429 9.58929 91.2098 9.58929 91.2634 9.58929C91.3303 9.58929 91.3973 9.59598 91.4643 9.60938C91.6116 9.42188 91.8058 9.31473 92.0469 9.28795C92.2879 9.24777 92.5424 9.32143 92.8103 9.50893C92.837 9.69643 92.8571 9.87723 92.8705 10.0513C92.8973 10.2254 92.9107 10.3862 92.9107 10.5335C92.9107 11.0558 92.8705 11.6384 92.7902 12.2813C92.7232 12.9241 92.6495 13.5737 92.5692 14.2299C92.4754 14.9129 92.3951 15.5759 92.3281 16.2188C92.2745 16.8482 92.2478 17.4107 92.2478 17.9063C92.2478 18.4152 92.2812 18.8237 92.3482 19.1317C92.4286 19.4397 92.5692 19.6004 92.7701 19.6138C92.837 19.6138 92.9308 19.5536 93.0513 19.433C93.1853 19.3125 93.3259 19.1585 93.4732 18.971C93.6205 18.7701 93.7745 18.5558 93.9353 18.3281C94.096 18.0871 94.2433 17.8661 94.3772 17.6652C94.5112 17.4509 94.625 17.2701 94.7187 17.1228C94.8125 16.9621 94.8661 16.8616 94.8795 16.8214C94.9196 16.7143 95.0201 16.654 95.1808 16.6406C95.3415 16.6138 95.5022 16.6272 95.6629 16.6808C95.837 16.7344 95.9844 16.8214 96.1049 16.942C96.2254 17.0625 96.2589 17.2098 96.2053 17.3839C96.125 17.5714 96.0112 17.7857 95.8638 18.0268C95.7299 18.2679 95.5759 18.5156 95.4018 18.7701C95.2277 19.0246 95.0469 19.279 94.8594 19.5335C94.6719 19.7879 94.4978 20.0223 94.337 20.2366C94.2299 20.3839 94.1295 20.5179 94.0357 20.6384C93.9553 20.7589 93.8884 20.8594 93.8348 20.9397L93.6138 21.1004ZM90.7411 15.4152C90.7812 15.2009 90.8147 14.8728 90.8415 14.4308C90.8817 13.9754 90.9219 13.4933 90.962 12.9844C90.9888 12.6763 91.0089 12.4152 91.0223 12.2009C91.0357 11.9866 91.0558 11.7455 91.0826 11.4777C90.8281 11.4509 90.5134 11.5313 90.1384 11.7188C89.7768 11.8929 89.4018 12.2009 89.0134 12.6429C88.6384 13.0714 88.2835 13.6406 87.9487 14.3504C87.6138 15.0603 87.3661 15.9241 87.2054 16.942C87.1786 17.1295 87.1585 17.3103 87.1451 17.4844C87.1317 17.6451 87.125 17.779 87.125 17.8862C87.125 18.3549 87.1853 18.6964 87.3058 18.9107C87.4397 19.125 87.6004 19.2321 87.7879 19.2321C88.0424 19.2321 88.317 19.1317 88.6116 18.9308C88.9196 18.7165 89.2143 18.4353 89.4955 18.0871C89.7902 17.7388 90.0446 17.3371 90.2589 16.8817C90.4866 16.4129 90.6473 15.9241 90.7411 15.4152ZM96.1652 16.3393C96.1652 15.6563 96.2187 14.8929 96.3259 14.0491C96.4464 13.192 96.6272 12.2344 96.8683 11.1763C96.4263 11.0156 96.058 10.8415 95.7634 10.654C95.4821 10.4665 95.2545 10.2723 95.0804 10.0714C94.9062 9.87054 94.7857 9.66964 94.7187 9.46875C94.6518 9.26786 94.6183 9.08036 94.6183 8.90625C94.6183 8.69197 94.6585 8.51116 94.7388 8.36384C94.8192 8.21652 94.9196 8.10938 95.0402 8.04241C95.1607 7.97545 95.2879 7.95536 95.4219 7.98214C95.5692 7.99554 95.6964 8.0625 95.8036 8.18304C95.8571 8.34375 95.9442 8.50447 96.0647 8.66518C96.1853 8.8125 96.3259 8.94643 96.4866 9.06697C96.6473 9.17411 96.8147 9.26116 96.9888 9.32813C97.1629 9.3817 97.3237 9.39509 97.471 9.3683C97.6183 8.95313 97.7455 8.52455 97.8527 8.08259C97.9598 7.62723 98.0536 7.21206 98.1339 6.83706C98.2143 6.43527 98.2946 6.07366 98.375 5.75223C98.4554 5.41741 98.5625 5.16295 98.6964 4.98884C98.8437 4.80134 99.0245 4.70759 99.2388 4.70759C99.4665 4.70759 99.7545 4.82813 100.103 5.0692L99.4196 8.94643C99.9152 8.82589 100.424 8.70536 100.946 8.58482C101.482 8.45089 101.978 8.33036 102.433 8.22322C102.487 8.61161 102.453 8.93304 102.333 9.1875C102.225 9.42857 102.065 9.62947 101.85 9.79018C101.636 9.95089 101.388 10.0781 101.107 10.1719C100.826 10.2522 100.538 10.3326 100.243 10.4129C99.8951 10.5201 99.567 10.6205 99.2589 10.7143C98.9509 10.7946 98.7567 10.9152 98.6763 11.0759C98.3951 12.1205 98.1741 13.1183 98.0134 14.0692C97.8527 15.0201 97.7723 15.8504 97.7723 16.5603C97.7723 17.3906 97.8527 18.0402 98.0134 18.5089C98.1741 18.9643 98.4018 19.192 98.6964 19.192C98.8304 19.192 98.9978 19.1317 99.1987 19.0112C99.5603 18.7835 99.9018 18.5424 100.223 18.2879C100.545 18.0201 100.846 17.7589 101.127 17.5045C101.382 17.2768 101.616 17.0692 101.83 16.8817C102.058 16.6942 102.266 16.5536 102.453 16.4598C102.641 16.3527 102.808 16.3058 102.955 16.3192C103.116 16.3326 103.257 16.4263 103.377 16.6004H103.357C103.491 16.7612 103.478 17.0022 103.317 17.3237C103.156 17.6451 102.915 17.9933 102.594 18.3683C102.286 18.7299 101.937 19.0915 101.549 19.4531C101.174 19.8013 100.826 20.0826 100.504 20.2969H100.525C99.9353 20.7254 99.346 20.9397 98.7567 20.9397C98.3951 20.9397 98.0536 20.8527 97.7321 20.6786C97.4241 20.4911 97.1495 20.2165 96.9085 19.8549C96.6808 19.4799 96.5 19.0045 96.3661 18.4286C96.2321 17.8393 96.1652 17.1429 96.1652 16.3393ZM103.478 16.3393C103.478 15.6563 103.531 14.8929 103.638 14.0491C103.759 13.192 103.94 12.2344 104.181 11.1763C103.739 11.0156 103.371 10.8415 103.076 10.654C102.795 10.4665 102.567 10.2723 102.393 10.0714C102.219 9.87054 102.098 9.66964 102.031 9.46875C101.964 9.26786 101.931 9.08036 101.931 8.90625C101.931 8.69197 101.971 8.51116 102.051 8.36384C102.132 8.21652 102.232 8.10938 102.353 8.04241C102.473 7.97545 102.6 7.95536 102.734 7.98214C102.882 7.99554 103.009 8.0625 103.116 8.18304C103.17 8.34375 103.257 8.50447 103.377 8.66518C103.498 8.8125 103.638 8.94643 103.799 9.06697C103.96 9.17411 104.127 9.26116 104.301 9.32813C104.475 9.3817 104.636 9.39509 104.783 9.3683C104.931 8.95313 105.058 8.52455 105.165 8.08259C105.272 7.62723 105.366 7.21206 105.446 6.83706C105.527 6.43527 105.607 6.07366 105.687 5.75223C105.768 5.41741 105.875 5.16295 106.009 4.98884C106.156 4.80134 106.337 4.70759 106.551 4.70759C106.779 4.70759 107.067 4.82813 107.415 5.0692L106.732 8.94643C107.228 8.82589 107.737 8.70536 108.259 8.58482C108.795 8.45089 109.29 8.33036 109.746 8.22322C109.799 8.61161 109.766 8.93304 109.645 9.1875C109.538 9.42857 109.377 9.62947 109.163 9.79018C108.949 9.95089 108.701 10.0781 108.42 10.1719C108.138 10.2522 107.85 10.3326 107.556 10.4129C107.208 10.5201 106.879 10.6205 106.571 10.7143C106.263 10.7946 106.069 10.9152 105.989 11.0759C105.708 12.1205 105.487 13.1183 105.326 14.0692C105.165 15.0201 105.085 15.8504 105.085 16.5603C105.085 17.3906 105.165 18.0402 105.326 18.5089C105.487 18.9643 105.714 19.192 106.009 19.192C106.143 19.192 106.31 19.1317 106.511 19.0112C106.873 18.7835 107.214 18.5424 107.536 18.2879C107.857 18.0201 108.158 17.7589 108.44 17.5045C108.694 17.2768 108.929 17.0692 109.143 16.8817C109.371 16.6942 109.578 16.5536 109.766 16.4598C109.953 16.3527 110.121 16.3058 110.268 16.3192C110.429 16.3326 110.569 16.4263 110.69 16.6004H110.67C110.804 16.7612 110.79 17.0022 110.629 17.3237C110.469 17.6451 110.228 17.9933 109.906 18.3683C109.598 18.7299 109.25 19.0915 108.862 19.4531C108.487 19.8013 108.138 20.0826 107.817 20.2969H107.837C107.248 20.7254 106.658 20.9397 106.069 20.9397C105.708 20.9397 105.366 20.8527 105.045 20.6786C104.737 20.4911 104.462 20.2165 104.221 19.8549C103.993 19.4799 103.812 19.0045 103.679 18.4286C103.545 17.8393 103.478 17.1429 103.478 16.3393ZM110.509 20.3371C110.187 20.0022 110.027 19.3795 110.027 18.4688C110.027 17.8527 110.08 17.1027 110.187 16.2188C110.308 15.3348 110.449 14.3371 110.609 13.2254C110.65 12.9442 110.69 12.6496 110.73 12.3415C110.783 12.0201 110.83 11.7054 110.871 11.3973C110.991 11.1563 111.138 10.9821 111.312 10.875C111.5 10.7545 111.687 10.6942 111.875 10.6942C112.143 10.6942 112.371 10.8013 112.558 11.0156C112.759 11.2165 112.826 11.5045 112.759 11.8795V11.8594C112.598 13.0915 112.431 14.3237 112.257 15.5558C112.096 16.7879 111.935 18.0201 111.775 19.2522C111.748 19.3058 111.721 19.3326 111.694 19.3326C111.801 19.3192 111.949 19.2321 112.136 19.0714C112.337 18.9107 112.545 18.7165 112.759 18.4888C112.987 18.2612 113.214 18.0201 113.442 17.7656C113.67 17.4978 113.877 17.2634 114.065 17.0625C114.225 16.875 114.359 16.721 114.467 16.6004C114.574 16.4665 114.708 16.346 114.868 16.2388C115.042 16.3192 115.129 16.4933 115.129 16.7612C115.143 17.029 115.089 17.3371 114.969 17.6853C114.848 18.0335 114.674 18.4018 114.446 18.7902C114.232 19.1652 113.978 19.5134 113.683 19.8348C113.388 20.1429 113.074 20.404 112.739 20.6183C112.404 20.8192 112.069 20.9196 111.734 20.9196C111.507 20.9196 111.292 20.8795 111.092 20.7991C110.891 20.7054 110.696 20.5513 110.509 20.3371ZM111.132 8.98661C111.132 8.69197 111.239 8.4442 111.453 8.2433C111.681 8.02902 111.949 7.92188 112.257 7.92188C112.565 7.92188 112.826 8.02902 113.04 8.2433C113.254 8.4442 113.362 8.69197 113.362 8.98661C113.362 9.28125 113.254 9.53572 113.04 9.75C112.826 9.95089 112.565 10.0513 112.257 10.0513C111.949 10.0513 111.681 9.95089 111.453 9.75C111.239 9.53572 111.132 9.28125 111.132 8.98661ZM115.551 16.3393C115.551 15.6563 115.605 14.8929 115.712 14.0491C115.833 13.192 116.013 12.2344 116.254 11.1763C115.812 11.0156 115.444 10.8415 115.15 10.654C114.868 10.4665 114.641 10.2723 114.467 10.0714C114.292 9.87054 114.172 9.66964 114.105 9.46875C114.038 9.26786 114.004 9.08036 114.004 8.90625C114.004 8.69197 114.045 8.51116 114.125 8.36384C114.205 8.21652 114.306 8.10938 114.426 8.04241C114.547 7.97545 114.674 7.95536 114.808 7.98214C114.955 7.99554 115.083 8.0625 115.19 8.18304C115.243 8.34375 115.33 8.50447 115.451 8.66518C115.571 8.8125 115.712 8.94643 115.873 9.06697C116.033 9.17411 116.201 9.26116 116.375 9.32813C116.549 9.3817 116.71 9.39509 116.857 9.3683C117.004 8.95313 117.132 8.52455 117.239 8.08259C117.346 7.62723 117.44 7.21206 117.52 6.83706C117.6 6.43527 117.681 6.07366 117.761 5.75223C117.842 5.41741 117.949 5.16295 118.083 4.98884C118.23 4.80134 118.411 4.70759 118.625 4.70759C118.853 4.70759 119.141 4.82813 119.489 5.0692L118.806 8.94643C119.301 8.82589 119.81 8.70536 120.333 8.58482C120.868 8.45089 121.364 8.33036 121.819 8.22322C121.873 8.61161 121.839 8.93304 121.719 9.1875C121.612 9.42857 121.451 9.62947 121.237 9.79018C121.022 9.95089 120.775 10.0781 120.493 10.1719C120.212 10.2522 119.924 10.3326 119.629 10.4129C119.281 10.5201 118.953 10.6205 118.645 10.7143C118.337 10.7946 118.143 10.9152 118.062 11.0759C117.781 12.1205 117.56 13.1183 117.4 14.0692C117.239 15.0201 117.158 15.8504 117.158 16.5603C117.158 17.3906 117.239 18.0402 117.4 18.5089C117.56 18.9643 117.788 19.192 118.083 19.192C118.217 19.192 118.384 19.1317 118.585 19.0112C118.946 18.7835 119.288 18.5424 119.609 18.2879C119.931 18.0201 120.232 17.7589 120.513 17.5045C120.768 17.2768 121.002 17.0692 121.217 16.8817C121.444 16.6942 121.652 16.5536 121.839 16.4598C122.027 16.3527 122.194 16.3058 122.342 16.3192C122.502 16.3326 122.643 16.4263 122.763 16.6004H122.743C122.877 16.7612 122.864 17.0022 122.703 17.3237C122.542 17.6451 122.301 17.9933 121.98 18.3683C121.672 18.7299 121.324 19.0915 120.935 19.4531C120.56 19.8013 120.212 20.0826 119.891 20.2969H119.911C119.321 20.7254 118.732 20.9397 118.143 20.9397C117.781 20.9397 117.44 20.8527 117.118 20.6786C116.81 20.4911 116.536 20.2165 116.295 19.8549C116.067 19.4799 115.886 19.0045 115.752 18.4286C115.618 17.8393 115.551 17.1429 115.551 16.3393ZM128.408 20.8594C128.007 20.4978 127.685 19.9688 127.444 19.2723C127.217 18.5625 127.069 17.7656 127.002 16.8817C126.426 18.3147 125.891 19.3393 125.395 19.9554C124.913 20.558 124.458 20.8594 124.029 20.8594C123.667 20.8594 123.353 20.6719 123.085 20.2969C122.817 19.9085 122.589 19.3929 122.402 18.75C122.214 18.1071 122.074 17.3705 121.98 16.5402C121.886 15.6964 121.839 14.8259 121.839 13.9286C121.839 13.192 121.866 12.4754 121.92 11.779C121.973 11.0692 122.054 10.4063 122.161 9.79018C122.214 9.57589 122.295 9.42857 122.402 9.34822C122.522 9.25447 122.65 9.20759 122.783 9.20759C122.917 9.1942 123.051 9.21429 123.185 9.26786C123.319 9.30804 123.446 9.34822 123.567 9.38839C123.594 9.40179 123.634 9.42857 123.687 9.46875C123.754 9.49554 123.842 9.5625 123.949 9.66964C123.788 10.5804 123.667 11.4174 123.587 12.1808C123.52 12.9442 123.487 13.6406 123.487 14.2701C123.487 14.9933 123.507 15.6496 123.547 16.2388C123.6 16.8147 123.661 17.3103 123.728 17.7254C123.808 18.1406 123.888 18.4554 123.969 18.6696C124.049 18.8839 124.123 18.9777 124.19 18.9509C124.297 18.9777 124.417 18.8371 124.551 18.529C124.699 18.221 124.846 17.8192 124.993 17.3237C125.154 16.8147 125.315 16.2455 125.475 15.6161C125.636 14.9732 125.79 14.3304 125.937 13.6875C126.098 13.0313 126.239 12.4085 126.359 11.8192C126.493 11.2165 126.607 10.7076 126.701 10.2924C126.795 10.0246 126.908 9.84375 127.042 9.75C127.176 9.64286 127.317 9.58929 127.464 9.58929C127.585 9.58929 127.692 9.63616 127.786 9.72991C127.893 9.82366 127.987 9.9442 128.067 10.0915C128.147 10.2254 128.214 10.3728 128.268 10.5335C128.321 10.6942 128.348 10.8415 128.348 10.9754C128.335 11.0826 128.321 11.2366 128.308 11.4375C128.308 11.6384 128.308 11.8527 128.308 12.0804C128.308 12.4821 128.315 12.9509 128.328 13.4866C128.355 14.0223 128.388 14.5915 128.429 15.1942C128.482 15.7835 128.549 16.3862 128.629 17.0022C128.723 17.6183 128.837 18.2009 128.971 18.75V18.7299C129.092 19.1183 129.292 19.4799 129.574 19.8147L128.408 20.8594ZM140.683 17.9263C140.187 18.4754 139.665 18.8906 139.116 19.1719C138.58 19.4397 138.058 19.5737 137.549 19.5737C137.027 19.5737 136.531 19.4196 136.062 19.1116C135.607 18.7902 135.232 18.308 134.937 17.6652C134.75 18.067 134.536 18.4688 134.295 18.8705C134.067 19.2589 133.799 19.6004 133.491 19.8951C133.183 20.1763 132.828 20.3906 132.426 20.5379C132.038 20.6853 131.589 20.7188 131.08 20.6384C130.545 20.4911 130.156 20.183 129.915 19.7143C129.687 19.2321 129.574 18.6295 129.574 17.9063C129.574 17.3571 129.634 16.7545 129.754 16.0982C129.888 15.442 130.076 14.779 130.317 14.1094C130.558 13.4397 130.839 12.7902 131.161 12.1607C131.496 11.5313 131.857 10.9688 132.246 10.4732C132.647 9.96429 133.076 9.54911 133.531 9.22768C133.987 8.89286 134.455 8.69197 134.937 8.625C134.964 8.04911 134.984 7.47322 134.998 6.89732C135.025 6.30804 135.045 5.71875 135.058 5.12947C135.058 4.88839 135.158 4.71429 135.359 4.60714C135.56 4.5 135.781 4.44643 136.022 4.44643C136.25 4.44643 136.478 4.5 136.705 4.60714C136.933 4.71429 137.094 4.90179 137.187 5.16964C137.107 5.69197 137.02 6.28795 136.926 6.95759C136.846 7.62723 136.772 8.34375 136.705 9.10714C136.638 9.85714 136.585 10.6339 136.545 11.4375C136.504 12.2277 136.484 13.0045 136.484 13.7679C136.484 14.5446 136.504 15.2946 136.545 16.0179C136.598 16.7411 136.712 17.2567 136.886 17.5647C137.074 17.8728 137.295 18.0268 137.549 18.0268C137.817 18.0268 138.152 17.8661 138.554 17.5446C138.969 17.2232 139.411 16.7879 139.879 16.2388L140.683 17.9263ZM131.683 18.8304C131.79 18.9911 131.944 18.9978 132.145 18.8504C132.346 18.6897 132.56 18.4286 132.788 18.067C133.016 17.692 133.25 17.2433 133.491 16.721C133.732 16.1853 133.946 15.6362 134.134 15.0737C134.335 14.4978 134.496 13.9219 134.616 13.346C134.75 12.7701 134.817 12.2545 134.817 11.7991C134.817 11.4911 134.783 11.2031 134.717 10.9353C134.422 10.9085 134.134 10.9955 133.853 11.1964C133.585 11.3973 133.33 11.6786 133.089 12.0402C132.848 12.3884 132.621 12.7969 132.406 13.2656C132.205 13.7344 132.031 14.2232 131.884 14.7321C131.75 15.2277 131.643 15.7232 131.562 16.2188C131.482 16.7143 131.442 17.1696 131.442 17.5848C131.442 17.8661 131.455 18.1138 131.482 18.3281C131.522 18.529 131.589 18.6964 131.683 18.8304ZM146.931 15.9576C147.185 16.0246 147.359 16.125 147.453 16.2589C147.56 16.3795 147.614 16.5469 147.614 16.7612C147.614 16.9754 147.52 17.2299 147.333 17.5246C147.158 17.8192 146.917 18.1272 146.609 18.4487C146.301 18.7567 145.953 19.0647 145.565 19.3728C145.176 19.6808 144.768 19.9621 144.339 20.2165C143.911 20.4576 143.482 20.6585 143.054 20.8192C142.638 20.9665 142.25 21.0402 141.888 21.0402C141.621 21.0402 141.373 21 141.145 20.9196C140.917 20.8393 140.717 20.7121 140.542 20.5379L140.583 20.558C140.154 20.1696 139.833 19.5268 139.618 18.6295C139.417 17.7321 139.317 16.7143 139.317 15.5759C139.317 14.9464 139.35 14.3103 139.417 13.6674C139.471 13.0112 139.558 12.375 139.679 11.7589C140.107 10.5536 140.576 9.69643 141.085 9.1875C141.594 8.66518 142.083 8.40402 142.551 8.40402C142.833 8.40402 143.087 8.48438 143.315 8.64509C143.556 8.79241 143.763 9.0067 143.937 9.28795C144.125 9.5558 144.266 9.87723 144.359 10.2522C144.467 10.6138 144.52 11.0156 144.52 11.4576C144.52 11.8594 144.467 12.2946 144.359 12.7634C144.266 13.2321 144.098 13.7009 143.857 14.1696C143.737 14.4107 143.616 14.6652 143.496 14.933C143.388 15.2009 143.275 15.4754 143.154 15.7567C142.926 16.2656 142.685 16.7813 142.431 17.3036C142.19 17.8125 141.955 18.2411 141.728 18.5893C141.795 19.0848 141.989 19.3326 142.31 19.3326C142.632 19.3326 143.007 19.2121 143.435 18.971C143.877 18.7299 144.299 18.442 144.701 18.1071C145.116 17.7723 145.491 17.4241 145.826 17.0625C146.161 16.6875 146.388 16.3795 146.509 16.1384L146.931 15.9576ZM143.054 10.9955C143.054 10.7946 143.013 10.6339 142.933 10.5134C142.866 10.3795 142.746 10.3058 142.571 10.2924C142.304 10.3996 142.069 10.6272 141.868 10.9754C141.681 11.3103 141.52 11.7121 141.386 12.1808C141.252 12.6496 141.152 13.1518 141.085 13.6875C141.018 14.2232 140.984 14.7388 140.984 15.2344C140.984 15.6629 141.011 16.0313 141.065 16.3393C141.279 15.9777 141.5 15.5625 141.728 15.0938C141.969 14.625 142.183 14.1496 142.371 13.6674C142.571 13.1719 142.732 12.6964 142.853 12.2411C142.987 11.7723 143.054 11.3571 143.054 10.9955ZM142.491 10.2924H142.571C142.585 10.2924 142.598 10.2857 142.612 10.2723L142.491 10.2924Z" fill="#0070AD"/>
</svg>
