<?xml version="1.0"?>
<svg width="180" height="60" xmlns="http://www.w3.org/2000/svg" xmlns:svg="http://www.w3.org/2000/svg" enable-background="new 0 0 1026.1 528.6" version="1.1" xml:space="preserve">
 <style type="text/css">.st0{fill:#345BA7;}
	.st1{fill:#295AC1;}</style>
 <g class="layer">
  <title>Layer 1</title>
  <g id="svg_1">
   <path class="st0" d="m13.66,40.82l0,14.54l-7.06,0l0,-24.5c0,-7.91 6.59,-13.77 15.33,-13.77s15.28,5.81 15.28,13.77s-6.38,13.72 -14.49,13.72c-3.55,0 -7.16,-1.38 -9.06,-3.76l0,0zm8.28,-2.45c4.56,0 8.11,-3.24 8.11,-7.49s-3.55,-7.49 -8.11,-7.49s-8.17,3.21 -8.17,7.47s3.55,7.52 8.17,7.52z" id="svg_2"/>
   <path class="st0" d="m59.16,17.6l0,6.31l-3.26,0c-4.75,0 -7.95,3.04 -7.95,7.54l0,12.61l-7.06,0l0,-12.59c0,-9.82 5.92,-13.87 15.01,-13.87c-0.03,0.02 3.26,0.02 3.26,0z" id="svg_3"/>
   <path class="st0" d="m61.2,30.85c0,-8.06 6.43,-13.77 15.22,-13.77s15.22,5.71 15.22,13.77s-6.38,13.72 -15.22,13.72s-15.22,-5.64 -15.22,-13.72l0,0zm23.28,0c0,-4.38 -3.26,-7.49 -8.06,-7.49s-8.06,3.14 -8.06,7.49s3.34,7.49 8.06,7.49s8.06,-3.16 8.06,-7.49z" id="svg_4"/>
   <path class="st0" d="m109.5,30.85c0,-8.06 6.43,-13.77 15.22,-13.77s15.22,5.71 15.22,13.77s-6.38,13.72 -15.22,13.72s-15.22,-5.64 -15.22,-13.72zm23.28,0c0,-4.38 -3.26,-7.49 -8.06,-7.49s-8.06,3.14 -8.06,7.49s3.34,7.49 8.06,7.49s8.06,-3.16 8.06,-7.49z" id="svg_5"/>
   <path class="st0" d="m165.98,46.23c-1.14,2.4 -3.74,3.71 -7.11,3.71s-5.81,-1.53 -6.76,-3.71l-7.6,0c1.68,6.01 7,9.67 14.38,9.67s13.11,-3.54 14.46,-9.67l-7.38,0l0,0z" id="svg_6"/>
   <g id="svg_7">
    <path class="st0" d="m158.89,38.34c-4.72,-0.05 -8.14,-3.21 -8.14,-7.49s3.37,-7.49 8.14,-7.49l0,-6.26c-0.03,0 -0.05,0 -0.08,0c-8.79,0 -15.22,5.81 -15.22,13.77s6.32,13.15 14.6,13.15c0.22,0 0.46,0 0.71,0l0,-5.69l0,0z" id="svg_8"/>
    <path class="st0" d="m158.89,38.34c4.72,-0.05 8.14,-3.21 8.14,-7.49c0,-4.3 -3.37,-7.49 -8.14,-7.49l0,-6.26c0.03,0 0.05,0 0.08,0c8.79,0 15.22,5.81 15.22,13.77c0,7.59 -6.32,13.15 -14.6,13.15c-0.22,0 -0.46,0 -0.71,0l0,-5.69l0,0z" id="svg_9"/>
   </g>
   <path class="st0" d="m103.1,34.46l0,-30.46l-7.06,0l0,30.66c0,5.37 4.78,9.69 10.64,9.69l1.49,0l0,-5.27l0,0c-2.8,0 -5.07,-2.08 -5.07,-4.62l0,0z" id="svg_10"/>
  </g>
 </g>
</svg>