<svg width="24" height="24" viewBox="0 0 24 24" fill="none" xmlns="http://www.w3.org/2000/svg">
    <g id="Vector">
        <mask id="mask0_3190_7857" style="mask-type:alpha" maskUnits="userSpaceOnUse" x="0" y="0"
            width="24" height="24">
            <rect id="Bounding box" width="24" height="24" fill="#D9D9D9" />
        </mask>
        <g mask="url(#mask0_3190_7857)">
            <path id="Vector_2"
                d="M6 22C5.45 22 4.97933 21.8043 4.588 21.413C4.196 21.021 4 20.55 4 20V4C4 3.45 4.196 2.979 4.588 2.587C4.97933 2.19567 5.45 2 6 2H14L20 8V20C20 20.55 19.8043 21.021 19.413 21.413C19.021 21.8043 18.55 22 18 22H6ZM6 20H18V9H13V4H6V20Z"
                fill="#0070AD" />
        </g>
    </g>
</svg>