<svg width="24" height="24" viewBox="0 0 24 24" fill="none" xmlns="http://www.w3.org/2000/svg">
<mask id="mask0_2110_16196" style="mask-type:alpha" maskUnits="userSpaceOnUse" x="0" y="0" width="24" height="24">
<rect width="24" height="24" fill="#D9D9D9"/>
</mask>
<g mask="url(#mask0_2110_16196)">
<path d="M12.0014 13.975C11.7255 13.975 11.4938 13.8816 11.3063 13.695C11.1188 13.5084 11.0251 13.2771 11.0251 13.0013C11.0251 12.7254 11.1184 12.4937 11.305 12.3062C11.4917 12.1187 11.7229 12.025 11.9988 12.025C12.2747 12.025 12.5063 12.1183 12.6938 12.3049C12.8813 12.4915 12.9751 12.7228 12.9751 12.9986C12.9751 13.2745 12.8818 13.5062 12.6952 13.6937C12.5085 13.8812 12.2773 13.975 12.0014 13.975ZM8.00142 13.975C7.72554 13.975 7.49385 13.8816 7.30635 13.695C7.11885 13.5084 7.0251 13.2771 7.0251 13.0013C7.0251 12.7254 7.11841 12.4937 7.30502 12.3062C7.49166 12.1187 7.72291 12.025 7.99877 12.025C8.27466 12.025 8.50635 12.1183 8.69385 12.3049C8.88135 12.4915 8.9751 12.7228 8.9751 12.9986C8.9751 13.2745 8.88179 13.5062 8.69517 13.6937C8.50854 13.8812 8.27729 13.975 8.00142 13.975ZM16.0014 13.975C15.7255 13.975 15.4938 13.8816 15.3063 13.695C15.1188 13.5084 15.0251 13.2771 15.0251 13.0013C15.0251 12.7254 15.1184 12.4937 15.305 12.3062C15.4917 12.1187 15.7229 12.025 15.9988 12.025C16.2747 12.025 16.5063 12.1183 16.6938 12.3049C16.8813 12.4915 16.9751 12.7228 16.9751 12.9986C16.9751 13.2745 16.8818 13.5062 16.6952 13.6937C16.5085 13.8812 16.2773 13.975 16.0014 13.975ZM12.0014 17.975C11.7255 17.975 11.4938 17.8816 11.3063 17.695C11.1188 17.5084 11.0251 17.2771 11.0251 17.0013C11.0251 16.7254 11.1184 16.4937 11.305 16.3062C11.4917 16.1187 11.7229 16.025 11.9988 16.025C12.2747 16.025 12.5063 16.1183 12.6938 16.3049C12.8813 16.4915 12.9751 16.7228 12.9751 16.9986C12.9751 17.2745 12.8818 17.5062 12.6952 17.6937C12.5085 17.8812 12.2773 17.975 12.0014 17.975ZM8.00142 17.975C7.72554 17.975 7.49385 17.8816 7.30635 17.695C7.11885 17.5084 7.0251 17.2771 7.0251 17.0013C7.0251 16.7254 7.11841 16.4937 7.30502 16.3062C7.49166 16.1187 7.72291 16.025 7.99877 16.025C8.27466 16.025 8.50635 16.1183 8.69385 16.3049C8.88135 16.4915 8.9751 16.7228 8.9751 16.9986C8.9751 17.2745 8.88179 17.5062 8.69517 17.6937C8.50854 17.8812 8.27729 17.975 8.00142 17.975ZM16.0014 17.975C15.7255 17.975 15.4938 17.8816 15.3063 17.695C15.1188 17.5084 15.0251 17.2771 15.0251 17.0013C15.0251 16.7254 15.1184 16.4937 15.305 16.3062C15.4917 16.1187 15.7229 16.025 15.9988 16.025C16.2747 16.025 16.5063 16.1183 16.6938 16.3049C16.8813 16.4915 16.9751 16.7228 16.9751 16.9986C16.9751 17.2745 16.8818 17.5062 16.6952 17.6937C16.5085 17.8812 16.2773 17.975 16.0014 17.975ZM5.1001 21.75C4.58446 21.75 4.14306 21.5664 3.77587 21.1992C3.40869 20.832 3.2251 20.3906 3.2251 19.875V6.07495C3.2251 5.55932 3.40869 5.11791 3.77587 4.75073C4.14306 4.38354 4.58446 4.19995 5.1001 4.19995H6.2251V2.19995H8.1001V4.19995H15.9001V2.19995H17.7751V4.19995H18.9001C19.4157 4.19995 19.8571 4.38354 20.2243 4.75073C20.5915 5.11791 20.7751 5.55932 20.7751 6.07495V19.875C20.7751 20.3906 20.5915 20.832 20.2243 21.1992C19.8571 21.5664 19.4157 21.75 18.9001 21.75H5.1001ZM5.1001 19.875H18.9001V10.05H5.1001V19.875Z" fill="#707070"/>
</g>
</svg>
